<svg xmlns="http://www.w3.org/2000/svg" version="1.1" xmlns:xlink="http://www.w3.org/1999/xlink" xmlns:svgjs="http://svgjs.dev/svgjs" width="1440" height="560" preserveAspectRatio="none" viewBox="0 0 1440 560"><g mask="url(&quot;#SvgjsMask1062&quot;)" fill="none"><rect width="1440" height="560" x="0" y="0" fill="url(&quot;#SvgjsLinearGradient1063&quot;)"></rect><path d="M1440 0L926.08 0L1440 55.41z" fill="rgba(255, 255, 255, .1)"></path><path d="M926.08 0L1440 55.41L1440 112.19999999999999L536.97 0z" fill="rgba(255, 255, 255, .075)"></path><path d="M536.97 0L1440 112.19999999999999L1440 278.90999999999997L361.64 0z" fill="rgba(255, 255, 255, .05)"></path><path d="M361.6400000000001 0L1440 278.90999999999997L1440 357.15L270.2000000000001 0z" fill="rgba(255, 255, 255, .025)"></path><path d="M0 560L541.78 560L0 303.29z" fill="rgba(0, 0, 0, .1)"></path><path d="M0 303.29L541.78 560L1034.88 560L0 174.84000000000003z" fill="rgba(0, 0, 0, .075)"></path><path d="M0 174.84000000000003L1034.88 560L1226.45 560L0 129.62000000000003z" fill="rgba(0, 0, 0, .05)"></path><path d="M0 129.62L1226.45 560L1230.42 560L0 53.24000000000001z" fill="rgba(0, 0, 0, .025)"></path></g><defs><mask id="SvgjsMask1062"><rect width="1440" height="560" fill="#ffffff"></rect></mask><linearGradient x1="84.72%" y1="-39.29%" x2="15.28%" y2="139.29%" gradientUnits="userSpaceOnUse" id="SvgjsLinearGradient1063"><stop stop-color="#0e2a47" offset="0"></stop><stop stop-color="#00459e" offset="1"></stop></linearGradient></defs></svg>